<?xml version="1.0" encoding="UTF-8"?>
<svg xmlns="http://www.w3.org/2000/svg" xmlns:xlink="http://www.w3.org/1999/xlink" width="30px" height="30px" viewBox="0 0 30 30" version="1.1">
<defs>
<clipPath id="clip1">
  <path d="M 4.039062 3.554688 L 25.816406 3.554688 L 25.816406 25.332031 L 4.039062 25.332031 Z M 4.039062 3.554688 "/>
</clipPath>
</defs>
<g id="surface1">
<g clip-path="url(#clip1)" clip-rule="nonzero">
<path style=" stroke:none;fill-rule:nonzero;fill:rgb(100%,100%,100%);fill-opacity:1;" d="M 23.773438 20.78125 C 23.773438 22.160156 22.644531 23.292969 21.265625 23.292969 L 8.726562 23.292969 C 7.34375 23.292969 6.214844 22.160156 6.214844 20.78125 L 6.214844 8.242188 C 6.214844 6.863281 7.34375 5.730469 8.726562 5.730469 L 21.265625 5.730469 C 22.644531 5.730469 23.773438 6.863281 23.773438 8.242188 Z M 21.265625 3.554688 L 8.726562 3.554688 C 6.140625 3.554688 4.039062 5.660156 4.039062 8.242188 L 4.039062 20.78125 C 4.039062 23.363281 6.140625 25.464844 8.726562 25.464844 L 21.265625 25.464844 C 23.847656 25.464844 25.949219 23.363281 25.949219 20.78125 L 25.949219 8.242188 C 25.949219 5.660156 23.847656 3.554688 21.265625 3.554688 "/>
</g>
<path style=" stroke:none;fill-rule:nonzero;fill:rgb(100%,100%,100%);fill-opacity:1;" d="M 14.996094 18.21875 C 12.949219 18.21875 11.289062 16.558594 11.289062 14.511719 C 11.289062 12.464844 12.949219 10.804688 14.996094 10.804688 C 17.042969 10.804688 18.699219 12.464844 18.699219 14.511719 C 18.699219 16.558594 17.042969 18.21875 14.996094 18.21875 Z M 14.996094 8.695312 C 11.789062 8.695312 9.179688 11.304688 9.179688 14.511719 C 9.179688 17.71875 11.789062 20.328125 14.996094 20.328125 C 18.203125 20.328125 20.8125 17.71875 20.8125 14.511719 C 20.8125 11.304688 18.203125 8.695312 14.996094 8.695312 "/>
<path style=" stroke:none;fill-rule:nonzero;fill:rgb(100%,100%,100%);fill-opacity:1;" d="M 21.597656 7.621094 L 20.316406 7.621094 C 20.070312 7.621094 19.867188 7.824219 19.867188 8.066406 L 19.867188 9.351562 C 19.867188 9.597656 20.070312 9.796875 20.316406 9.796875 L 21.597656 9.796875 C 21.84375 9.796875 22.042969 9.597656 22.042969 9.351562 L 22.042969 8.066406 C 22.042969 7.824219 21.84375 7.621094 21.597656 7.621094 "/>
</g>
</svg>
