<?xml version="1.0" encoding="UTF-8"?>
<svg xmlns="http://www.w3.org/2000/svg" xmlns:xlink="http://www.w3.org/1999/xlink" width="30px" height="30px" viewBox="0 0 30 30" version="1.1">
<defs>
<clipPath id="clip1">
  <path d="M 4.203125 3.71875 L 25.976562 3.71875 L 25.976562 25.492188 L 4.203125 25.492188 Z M 4.203125 3.71875 "/>
</clipPath>
</defs>
<g id="surface1">
<g clip-path="url(#clip1)" clip-rule="nonzero">
<path style=" stroke:none;fill-rule:nonzero;fill:rgb(0.784314%,46.666667%,70.980392%);fill-opacity:1;" d="M 24.160156 3.71875 L 6.035156 3.71875 C 5.03125 3.71875 4.226562 4.535156 4.226562 5.527344 L 4.226562 23.6875 C 4.226562 24.6875 5.042969 25.492188 6.035156 25.492188 L 24.148438 25.492188 C 25.148438 25.492188 25.957031 24.675781 25.957031 23.6875 L 25.957031 5.527344 C 25.96875 4.535156 25.160156 3.71875 24.160156 3.71875 Z M 10.664062 21.679688 L 7.449219 21.679688 L 7.449219 12.03125 L 10.664062 12.03125 Z M 9.050781 10.867188 C 8.039062 10.867188 7.222656 10.046875 7.222656 9.035156 C 7.222656 8.023438 8.039062 7.207031 9.050781 7.207031 C 10.0625 7.207031 10.878906 8.023438 10.878906 9.035156 C 10.878906 10.046875 10.0625 10.867188 9.050781 10.867188 Z M 22.753906 21.679688 L 19.53125 21.679688 L 19.453125 15.953125 C 19.453125 15.953125 19.53125 14.425781 17.863281 14.4375 C 16.195312 14.449219 15.96875 15.953125 15.96875 15.953125 L 15.96875 21.679688 L 12.722656 21.679688 L 12.722656 12.03125 L 15.835938 12.03125 L 15.835938 13.359375 C 15.835938 13.359375 15.96875 12.925781 16.6875 12.410156 C 17.40625 11.898438 18.59375 11.792969 19.105469 11.8125 C 19.617188 11.835938 20.3125 11.746094 21.480469 12.554688 C 22.730469 13.414062 22.765625 15.667969 22.765625 15.667969 Z M 22.753906 21.679688 "/>
</g>
</g>
</svg>
